General
      Complete name : Predator.2.1990.BRRip.H264.AAC.5.1ch.Gopo.mp4
      Format : MPEG-4
      Format profile : Base Media
      Codec ID : isom
      File size : 1.65 GiB
      Duration : 1h 48mn
      Overall bit rate : 2 193 Kbps
      Encoded date : UTC 2009-12-11 09:40:02
      Tagged date : UTC 2009-12-11 09:40:02
      Writing application : Yamb 2.1.0.0 [http://yamb.unite-video.com]
   Video #2
      ID : 2
      Format : AVC
      Format/Info : Advanced Video Codec
      Format profile : High@L4.1
      Format settings, CABAC : Yes
      Format settings, ReFrames : 2 frames
      Codec ID : avc1
      Codec ID/Info : Advanced Video Coding
      Duration : 1h 47mn
      Bit rate mode : Variable
      Bit rate : 1 825 Kbps
      Maximum bit rate : 11.0 Mbps
      Width : 1 280 pixels
      Height : 688 pixels
      Display aspect ratio : 1.860
      Frame rate mode : Constant
      Frame rate : 23.976 fps
      Resolution : 24 bits
      Colorimetry : 4:2:0
      Scan type : Progressive
      Bits/(Pixel*Frame) : 0.086
      Stream size : 1.38 GiB (83%)
      Writing library : x264 core 79 r1360 528c100
      Encoding settings : cabac=1 / ref=2 / deblock=1:0:0 / analyse=0x3:0x113 / me=umh / subme=8 / psy=1 / psy_rd=1.0:0.0 / mixed_ref=1 / me_range=16 / chroma_me=1 / trellis=2 / 8x8dct=1 / cqm=0 / deadzone=21,11 / chroma_qp_offset=-2 / threads=1 / nr=0 / decimate=1 / mbaff=0 / constrained_intra=0 / bframes=3 / b_pyramid=0 / b_adapt=2 / b_bias=0 / direct=3 / wpredb=1 / wpredp=2 / keyint=250 / keyint_min=25 / scenecut=40 / rc_lookahead=30 / rc=2pass / mbtree=1 / bitrate=1825 / ratetol=1.0 / qcomp=0.50 / qpmin=10 / qpmax=51 / qpstep=4 / cplxblur=20.0 / qblur=0.5 / vbv_maxrate=24000 / vbv_bufsize=24000 / ip_ratio=1.10 / aq=1:1.00
      Encoded date : UTC 2009-12-09 20:21:04
      Tagged date : UTC 2009-12-11 09:44:18
   Audio #1
      ID : 1
      Format : AAC
      Format/Info : Advanced Audio Codec
      Format version : Version 4
      Format profile : LC
      Format settings, SBR : No
      Codec ID : 40
      Duration : 1h 48mn
      Bit rate mode : Variable
      Bit rate : 364 Kbps
      Maximum bit rate : 410 Kbps
      Channel(s) : 6 channels
      Channel positions : Front: L C R, Rear: L R, LFE
      Sampling rate : 48.0 KHz
      Resolution : 16 bits
      Stream size : 281 MiB (17%)
      Encoded date : UTC 2009-12-11 09:40:02
      Tagged date : UTC 2009-12-11 09:44:18
	Sample : YES
	Subtitle : English,Romanian

PLOT

Lt. Harrigan (Danny Glover) is a cop fighting the good war against drugs. But recently, the major drug lords have been killed off in a very brutal fashion. His superiors tell him to stay out of it, but Harrigan knows that something is wrong. His instincts are right when he discovers that the person behind the murders is none other than the Predator, the human-hunting alien who likes to make trophies out of his victims' skulls. But how can Harrigan stop the Predator when it can turn invisible and kill him without him knowing it?
Director: Stephen Hopkins
CASTING
      
      Kevin Peter Hall	... 	The Predator
	Danny Glover	... 	Lieutenant Mike Harrigan
	Gary Busey	... 	Peter Keyes
	Rubén Blades	... 	Danny Archuleta (as Ruben Blades)
	Maria Conchita Alonso	... 	Leona Cantrell
	Bill Paxton	... 	Jerry Lambert
	Robert Davi	... 	Captain Phil Heinemann
	Adam Baldwin	... 	Garber
	Kent McCord	... 	Captain B. Pilgrim
	Morton Downey Jr.	... 	Tony Pope
	Calvin Lockhart	... 	King Willie
	Steve Kahan	... 	Sergeant
	Henry Kingi	... 	El Scorpio
	Corey Rand	... 	Ramon Vega
	Elpidia Carrillo	... 	Anna

SOURCE: Predator.2.1990.1080p.BluRay.x264-CiNEFiLE.mkv

Notes: For best performance I suggest you to use KMPlayer(find it with google) for playback
I haven't tested the movies on a PS3 or Xbox or other devices than PC because I don't own one of them but feel free to test them if you have the oportunity.
